<mxfile host="app.diagrams.net" modified="2024-02-24T11:34:45.615Z" agent="Mozilla/5.0 (Windows NT 10.0; Win64; x64) AppleWebKit/537.36 (KHTML, like Gecko) Chrome/121.0.0.0 Safari/537.36 Edg/121.0.0.0" etag="ptsfQz_Ut-T9oBnkf5li" version="23.1.6" type="device">
  <diagram name="Page-1" id="6133507b-19e7-1e82-6fc7-422aa6c4b21f">
    <mxGraphModel dx="1158" dy="641" grid="1" gridSize="10" guides="1" tooltips="1" connect="1" arrows="1" fold="1" page="1" pageScale="1" pageWidth="1100" pageHeight="850" background="none" math="0" shadow="0">
      <root>
        <mxCell id="0" />
        <mxCell id="1" parent="0" />
        <mxCell id="235556782a83e6d0-1" value="Classname" style="swimlane;html=1;fontStyle=1;align=center;verticalAlign=top;childLayout=stackLayout;horizontal=1;startSize=26;horizontalStack=0;resizeParent=1;resizeLast=0;collapsible=1;marginBottom=0;swimlaneFillColor=#ffffff;rounded=0;shadow=0;comic=0;labelBackgroundColor=none;strokeWidth=1;fillColor=none;fontFamily=Verdana;fontSize=12" parent="1" vertex="1">
          <mxGeometry x="640" y="180" width="160" height="168" as="geometry" />
        </mxCell>
        <mxCell id="235556782a83e6d0-2" value="+ field: type" style="text;html=1;strokeColor=none;fillColor=none;align=left;verticalAlign=top;spacingLeft=4;spacingRight=4;whiteSpace=wrap;overflow=hidden;rotatable=0;points=[[0,0.5],[1,0.5]];portConstraint=eastwest;" parent="235556782a83e6d0-1" vertex="1">
          <mxGeometry y="26" width="160" height="26" as="geometry" />
        </mxCell>
        <mxCell id="235556782a83e6d0-3" value="+ field: type" style="text;html=1;strokeColor=none;fillColor=none;align=left;verticalAlign=top;spacingLeft=4;spacingRight=4;whiteSpace=wrap;overflow=hidden;rotatable=0;points=[[0,0.5],[1,0.5]];portConstraint=eastwest;" parent="235556782a83e6d0-1" vertex="1">
          <mxGeometry y="52" width="160" height="26" as="geometry" />
        </mxCell>
        <mxCell id="235556782a83e6d0-5" value="+ field: type" style="text;html=1;strokeColor=none;fillColor=none;align=left;verticalAlign=top;spacingLeft=4;spacingRight=4;whiteSpace=wrap;overflow=hidden;rotatable=0;points=[[0,0.5],[1,0.5]];portConstraint=eastwest;" parent="235556782a83e6d0-1" vertex="1">
          <mxGeometry y="78" width="160" height="26" as="geometry" />
        </mxCell>
        <mxCell id="235556782a83e6d0-6" value="" style="line;html=1;strokeWidth=1;fillColor=none;align=left;verticalAlign=middle;spacingTop=-1;spacingLeft=3;spacingRight=3;rotatable=0;labelPosition=right;points=[];portConstraint=eastwest;" parent="235556782a83e6d0-1" vertex="1">
          <mxGeometry y="104" width="160" height="8" as="geometry" />
        </mxCell>
        <mxCell id="235556782a83e6d0-7" value="+ method(type): type" style="text;html=1;strokeColor=none;fillColor=none;align=left;verticalAlign=top;spacingLeft=4;spacingRight=4;whiteSpace=wrap;overflow=hidden;rotatable=0;points=[[0,0.5],[1,0.5]];portConstraint=eastwest;" parent="235556782a83e6d0-1" vertex="1">
          <mxGeometry y="112" width="160" height="26" as="geometry" />
        </mxCell>
        <mxCell id="78961159f06e98e8-17" value="&quot;Stack&quot; struct" style="swimlane;html=1;fontStyle=1;align=center;verticalAlign=top;childLayout=stackLayout;horizontal=1;startSize=26;horizontalStack=0;resizeParent=1;resizeLast=0;collapsible=1;marginBottom=0;swimlaneFillColor=#ffffff;rounded=0;shadow=0;comic=0;labelBackgroundColor=none;strokeWidth=1;fillColor=none;fontFamily=Verdana;fontSize=12" parent="1" vertex="1">
          <mxGeometry x="660" y="480" width="290" height="320" as="geometry" />
        </mxCell>
        <mxCell id="78961159f06e98e8-23" value="&lt;div style=&quot;color: rgb(187, 187, 187); background-color: rgb(38, 35, 53); font-family: Consolas, &amp;quot;Courier New&amp;quot;, monospace; font-size: 14px; line-height: 19px;&quot;&gt;&lt;div&gt;typedef &lt;span style=&quot;color: #fede5d;&quot;&gt;struct&lt;/span&gt; &lt;span style=&quot;color: #fe4450;&quot;&gt;s_stack&lt;/span&gt;&lt;/div&gt;&lt;div&gt;{&lt;/div&gt;&lt;div&gt;&amp;nbsp; &amp;nbsp; &lt;span style=&quot;color: #fede5d;&quot;&gt;int&lt;/span&gt; &amp;nbsp; &amp;nbsp; &amp;nbsp; &amp;nbsp; &amp;nbsp; &amp;nbsp; &lt;span style=&quot;color: #ff7edb;&quot;&gt;value&lt;/span&gt;;&lt;/div&gt;&lt;div&gt;&amp;nbsp; &amp;nbsp; &lt;span style=&quot;color: #fede5d;&quot;&gt;int&lt;/span&gt; &amp;nbsp; &amp;nbsp; &amp;nbsp; &amp;nbsp; &amp;nbsp; &amp;nbsp; &lt;span style=&quot;color: #ff7edb;&quot;&gt;index&lt;/span&gt;;&lt;/div&gt;&lt;div&gt;&amp;nbsp; &amp;nbsp; &lt;span style=&quot;color: #fede5d;&quot;&gt;int&lt;/span&gt; &amp;nbsp; &amp;nbsp; &amp;nbsp; &amp;nbsp; &amp;nbsp; &amp;nbsp; &lt;span style=&quot;color: #ff7edb;&quot;&gt;operations&lt;/span&gt;;&lt;/div&gt;&lt;div&gt;&amp;nbsp; &amp;nbsp; &lt;span style=&quot;color: #36f9f6;&quot;&gt;bool&lt;/span&gt; &amp;nbsp; &amp;nbsp; &amp;nbsp; &amp;nbsp; &amp;nbsp; &amp;nbsp;&lt;span style=&quot;color: #ff7edb;&quot;&gt;switch_cheapest&lt;/span&gt;;&lt;/div&gt;&lt;div&gt;&amp;nbsp; &amp;nbsp; &lt;span style=&quot;color: #fede5d;&quot;&gt;struct&lt;/span&gt; &lt;span style=&quot;color: #fe4450;&quot;&gt;s_stack&lt;/span&gt; &amp;nbsp;&lt;span style=&quot;color: #fede5d;&quot;&gt;*&lt;/span&gt;&lt;span style=&quot;color: #ff7edb;&quot;&gt;next&lt;/span&gt;;&lt;/div&gt;&lt;div&gt;&amp;nbsp; &amp;nbsp; &lt;span style=&quot;color: #fede5d;&quot;&gt;struct&lt;/span&gt; &lt;span style=&quot;color: #fe4450;&quot;&gt;s_stack&lt;/span&gt; &amp;nbsp;&lt;span style=&quot;color: #fede5d;&quot;&gt;*&lt;/span&gt;&lt;span style=&quot;color: #ff7edb;&quot;&gt;target&lt;/span&gt;;&lt;/div&gt;&lt;div&gt;&amp;nbsp; &amp;nbsp; &lt;span style=&quot;color: #fe4450;&quot;&gt;t_direction&lt;/span&gt; &amp;nbsp; &amp;nbsp; &lt;span style=&quot;color: #ff7edb;&quot;&gt;move&lt;/span&gt;;&lt;/div&gt;&lt;div&gt;} &amp;nbsp; &lt;span style=&quot;color: #fe4450;&quot;&gt;t_stack&lt;/span&gt;;&lt;/div&gt;&lt;/div&gt;" style="text;html=1;strokeColor=none;fillColor=none;align=left;verticalAlign=top;spacingLeft=4;spacingRight=4;whiteSpace=wrap;overflow=hidden;rotatable=0;points=[[0,0.5],[1,0.5]];portConstraint=eastwest;" parent="78961159f06e98e8-17" vertex="1">
          <mxGeometry y="26" width="290" height="214" as="geometry" />
        </mxCell>
        <mxCell id="78961159f06e98e8-19" value="" style="line;html=1;strokeWidth=1;fillColor=none;align=left;verticalAlign=middle;spacingTop=-1;spacingLeft=3;spacingRight=3;rotatable=0;labelPosition=right;points=[];portConstraint=eastwest;" parent="78961159f06e98e8-17" vertex="1">
          <mxGeometry y="240" width="290" height="8" as="geometry" />
        </mxCell>
        <mxCell id="78961159f06e98e8-27" value="Each &quot;stack node&quot; contains these elements.&lt;br&gt;- &quot;move&quot; is an enum type containing the directions &quot;up&quot; (= 0) and &quot;down&quot; (= 1)" style="text;html=1;strokeColor=none;fillColor=none;align=left;verticalAlign=top;spacingLeft=4;spacingRight=4;whiteSpace=wrap;overflow=hidden;rotatable=0;points=[[0,0.5],[1,0.5]];portConstraint=eastwest;" parent="78961159f06e98e8-17" vertex="1">
          <mxGeometry y="248" width="290" height="52" as="geometry" />
        </mxCell>
        <mxCell id="SYRdz3PHqMFeTXsY7jjO-21" value="" style="endArrow=classic;html=1;rounded=0;entryX=-0.011;entryY=0.604;entryDx=0;entryDy=0;entryPerimeter=0;strokeWidth=2;fillColor=#dae8fc;strokeColor=#6c8ebf;edgeStyle=elbowEdgeStyle;" parent="78961159f06e98e8-17" target="SYRdz3PHqMFeTXsY7jjO-13" edge="1">
          <mxGeometry width="50" height="50" relative="1" as="geometry">
            <mxPoint x="210" y="100" as="sourcePoint" />
            <mxPoint x="360" y="-200" as="targetPoint" />
            <Array as="points">
              <mxPoint x="300" y="-50" />
            </Array>
          </mxGeometry>
        </mxCell>
        <mxCell id="SYRdz3PHqMFeTXsY7jjO-2" value="&quot;Stack A&quot;" style="swimlane;html=1;fontStyle=1;align=center;verticalAlign=top;childLayout=stackLayout;horizontal=1;startSize=26;horizontalStack=0;resizeParent=1;resizeLast=0;collapsible=1;marginBottom=0;swimlaneFillColor=#ffffff;rounded=0;shadow=0;comic=0;labelBackgroundColor=none;strokeWidth=1;fillColor=none;fontFamily=Verdana;fontSize=12" parent="1" vertex="1">
          <mxGeometry x="460" y="480" width="110" height="190" as="geometry">
            <mxRectangle x="10" y="20" width="110" height="30" as="alternateBounds" />
          </mxGeometry>
        </mxCell>
        <mxCell id="SYRdz3PHqMFeTXsY7jjO-11" style="edgeStyle=orthogonalEdgeStyle;rounded=0;orthogonalLoop=1;jettySize=auto;html=1;exitX=1;exitY=0.5;exitDx=0;exitDy=0;" parent="SYRdz3PHqMFeTXsY7jjO-2" source="SYRdz3PHqMFeTXsY7jjO-3" edge="1">
          <mxGeometry relative="1" as="geometry">
            <mxPoint x="200" y="39" as="targetPoint" />
          </mxGeometry>
        </mxCell>
        <mxCell id="SYRdz3PHqMFeTXsY7jjO-3" value="stack node 1" style="text;html=1;strokeColor=none;fillColor=none;align=left;verticalAlign=top;spacingLeft=4;spacingRight=4;whiteSpace=wrap;overflow=hidden;rotatable=0;points=[[0,0.5],[1,0.5]];portConstraint=eastwest;" parent="SYRdz3PHqMFeTXsY7jjO-2" vertex="1">
          <mxGeometry y="26" width="110" height="26" as="geometry" />
        </mxCell>
        <mxCell id="SYRdz3PHqMFeTXsY7jjO-4" value="stack node 2" style="text;html=1;strokeColor=none;fillColor=none;align=left;verticalAlign=top;spacingLeft=4;spacingRight=4;whiteSpace=wrap;overflow=hidden;rotatable=0;points=[[0,0.5],[1,0.5]];portConstraint=eastwest;" parent="SYRdz3PHqMFeTXsY7jjO-2" vertex="1">
          <mxGeometry y="52" width="110" height="26" as="geometry" />
        </mxCell>
        <mxCell id="SYRdz3PHqMFeTXsY7jjO-5" value="stack node 3" style="text;html=1;strokeColor=none;fillColor=none;align=left;verticalAlign=top;spacingLeft=4;spacingRight=4;whiteSpace=wrap;overflow=hidden;rotatable=0;points=[[0,0.5],[1,0.5]];portConstraint=eastwest;" parent="SYRdz3PHqMFeTXsY7jjO-2" vertex="1">
          <mxGeometry y="78" width="110" height="26" as="geometry" />
        </mxCell>
        <mxCell id="SYRdz3PHqMFeTXsY7jjO-8" value="stack node 4" style="text;html=1;strokeColor=none;fillColor=none;align=left;verticalAlign=top;spacingLeft=4;spacingRight=4;whiteSpace=wrap;overflow=hidden;rotatable=0;points=[[0,0.5],[1,0.5]];portConstraint=eastwest;" parent="SYRdz3PHqMFeTXsY7jjO-2" vertex="1">
          <mxGeometry y="104" width="110" height="26" as="geometry" />
        </mxCell>
        <mxCell id="SYRdz3PHqMFeTXsY7jjO-9" value="etc." style="text;html=1;strokeColor=none;fillColor=none;align=left;verticalAlign=top;spacingLeft=4;spacingRight=4;whiteSpace=wrap;overflow=hidden;rotatable=0;points=[[0,0.5],[1,0.5]];portConstraint=eastwest;" parent="SYRdz3PHqMFeTXsY7jjO-2" vertex="1">
          <mxGeometry y="130" width="110" height="26" as="geometry" />
        </mxCell>
        <mxCell id="SYRdz3PHqMFeTXsY7jjO-12" value="Index and direction" style="swimlane;html=1;fontStyle=1;align=center;verticalAlign=top;childLayout=stackLayout;horizontal=1;startSize=26;horizontalStack=0;resizeParent=1;resizeLast=0;collapsible=1;marginBottom=0;swimlaneFillColor=#ffffff;rounded=0;shadow=0;comic=0;labelBackgroundColor=none;strokeWidth=1;fillColor=none;fontFamily=Verdana;fontSize=12" parent="1" vertex="1">
          <mxGeometry x="1030" y="10" width="380" height="490" as="geometry" />
        </mxCell>
        <mxCell id="SYRdz3PHqMFeTXsY7jjO-13" value="&#xa;&lt;div style=&quot;color: rgb(187, 187, 187); background-color: rgb(38, 35, 53); font-family: Consolas, &amp;quot;Courier New&amp;quot;, monospace; font-weight: normal; font-size: 14px; line-height: 19px;&quot;&gt;&lt;div&gt;&lt;span style=&quot;color: #fede5d;&quot;&gt;void&lt;/span&gt;&lt;span style=&quot;color: #bbbbbb;&quot;&gt; &amp;nbsp; &amp;nbsp;&lt;/span&gt;&lt;span style=&quot;color: #36f9f6;&quot;&gt;get_index_and_direction&lt;/span&gt;&lt;span style=&quot;color: #bbbbbb;&quot;&gt;(&lt;/span&gt;&lt;span style=&quot;color: #fe4450;&quot;&gt;t_stack&lt;/span&gt;&lt;span style=&quot;color: #bbbbbb;&quot;&gt; &lt;/span&gt;&lt;span style=&quot;color: #fede5d;&quot;&gt;*&lt;/span&gt;&lt;span style=&quot;color: #ff7edb;font-style: italic;&quot;&gt;stack&lt;/span&gt;&lt;span style=&quot;color: #bbbbbb;&quot;&gt;)&lt;/span&gt;&lt;/div&gt;&lt;div&gt;&lt;span style=&quot;color: #bbbbbb;&quot;&gt;{&lt;/span&gt;&lt;/div&gt;&lt;div&gt;&lt;span style=&quot;color: #bbbbbb;&quot;&gt;&amp;nbsp; &amp;nbsp; &lt;/span&gt;&lt;span style=&quot;color: #fede5d;&quot;&gt;int&lt;/span&gt;&lt;span style=&quot;color: #bbbbbb;&quot;&gt; &lt;/span&gt;&lt;span style=&quot;color: #ff7edb;&quot;&gt;i&lt;/span&gt;&lt;span style=&quot;color: #bbbbbb;&quot;&gt;;&lt;/span&gt;&lt;/div&gt;&lt;div&gt;&lt;span style=&quot;color: #bbbbbb;&quot;&gt;&amp;nbsp; &amp;nbsp; &lt;/span&gt;&lt;span style=&quot;color: #fede5d;&quot;&gt;int&lt;/span&gt;&lt;span style=&quot;color: #bbbbbb;&quot;&gt; &lt;/span&gt;&lt;span style=&quot;color: #ff7edb;&quot;&gt;direction&lt;/span&gt;&lt;span style=&quot;color: #bbbbbb;&quot;&gt;;&lt;/span&gt;&lt;/div&gt;&lt;br&gt;&lt;div&gt;&lt;span style=&quot;color: #bbbbbb;&quot;&gt;&amp;nbsp; &amp;nbsp; &lt;/span&gt;&lt;span style=&quot;color: #ff7edb;&quot;&gt;i&lt;/span&gt;&lt;span style=&quot;color: #bbbbbb;&quot;&gt; &lt;/span&gt;&lt;span style=&quot;color: #ffffff;&quot;&gt;=&lt;/span&gt;&lt;span style=&quot;color: #bbbbbb;&quot;&gt; &lt;/span&gt;&lt;span style=&quot;color: #f97e72;&quot;&gt;0&lt;/span&gt;&lt;span style=&quot;color: #bbbbbb;&quot;&gt;;&lt;/span&gt;&lt;/div&gt;&lt;div&gt;&lt;span style=&quot;color: #bbbbbb;&quot;&gt;&amp;nbsp; &amp;nbsp; &lt;/span&gt;&lt;span style=&quot;color: #fede5d;&quot;&gt;if&lt;/span&gt;&lt;span style=&quot;color: #bbbbbb;&quot;&gt; (&lt;/span&gt;&lt;span style=&quot;color: #fede5d;&quot;&gt;!&lt;/span&gt;&lt;span style=&quot;color: #ff7edb;font-style: italic;&quot;&gt;stack&lt;/span&gt;&lt;span style=&quot;color: #bbbbbb;&quot;&gt;)&lt;/span&gt;&lt;/div&gt;&lt;div&gt;&lt;span style=&quot;color: #bbbbbb;&quot;&gt;&amp;nbsp; &amp;nbsp; &amp;nbsp; &amp;nbsp; &lt;/span&gt;&lt;span style=&quot;color: #fede5d;&quot;&gt;return&lt;/span&gt;&lt;span style=&quot;color: #bbbbbb;&quot;&gt; ;&lt;/span&gt;&lt;/div&gt;&lt;div&gt;&lt;span style=&quot;color: #bbbbbb;&quot;&gt;&amp;nbsp; &amp;nbsp; &lt;/span&gt;&lt;span style=&quot;color: #ff7edb;&quot;&gt;direction&lt;/span&gt;&lt;span style=&quot;color: #bbbbbb;&quot;&gt; &lt;/span&gt;&lt;span style=&quot;color: #ffffff;&quot;&gt;=&lt;/span&gt;&lt;span style=&quot;color: #bbbbbb;&quot;&gt; &lt;/span&gt;&lt;span style=&quot;color: #36f9f6;&quot;&gt;count_stack&lt;/span&gt;&lt;span style=&quot;color: #bbbbbb;&quot;&gt;(&lt;/span&gt;&lt;span style=&quot;color: #fede5d;&quot;&gt;&amp;amp;&lt;/span&gt;&lt;span style=&quot;color: #ff7edb;font-style: italic;&quot;&gt;stack&lt;/span&gt;&lt;span style=&quot;color: #bbbbbb;&quot;&gt;) &lt;/span&gt;&lt;span style=&quot;color: #fede5d;&quot;&gt;/&lt;/span&gt;&lt;span style=&quot;color: #bbbbbb;&quot;&gt; &lt;/span&gt;&lt;span style=&quot;color: #f97e72;&quot;&gt;2&lt;/span&gt;&lt;span style=&quot;color: #bbbbbb;&quot;&gt;;&lt;/span&gt;&lt;/div&gt;&lt;div&gt;&lt;span style=&quot;color: #bbbbbb;&quot;&gt;&amp;nbsp; &amp;nbsp; &lt;/span&gt;&lt;span style=&quot;color: #fede5d;&quot;&gt;while&lt;/span&gt;&lt;span style=&quot;color: #bbbbbb;&quot;&gt; (&lt;/span&gt;&lt;span style=&quot;color: #ff7edb;font-style: italic;&quot;&gt;stack&lt;/span&gt;&lt;span style=&quot;color: #bbbbbb;&quot;&gt;)&lt;/span&gt;&lt;/div&gt;&lt;div&gt;&lt;span style=&quot;color: #bbbbbb;&quot;&gt;&amp;nbsp; &amp;nbsp; {&lt;/span&gt;&lt;/div&gt;&lt;div&gt;&lt;span style=&quot;color: #bbbbbb;&quot;&gt;&amp;nbsp; &amp;nbsp; &amp;nbsp; &amp;nbsp; &lt;/span&gt;&lt;span style=&quot;color: #ff7edb;font-style: italic;&quot;&gt;stack&lt;/span&gt;&lt;span style=&quot;color: #bbbbbb;&quot;&gt;-&amp;gt;&lt;/span&gt;&lt;span style=&quot;color: #ff7edb;&quot;&gt;index&lt;/span&gt;&lt;span style=&quot;color: #bbbbbb;&quot;&gt; &lt;/span&gt;&lt;span style=&quot;color: #ffffff;&quot;&gt;=&lt;/span&gt;&lt;span style=&quot;color: #bbbbbb;&quot;&gt; &lt;/span&gt;&lt;span style=&quot;color: #ff7edb;&quot;&gt;i&lt;/span&gt;&lt;span style=&quot;color: #bbbbbb;&quot;&gt;;&lt;/span&gt;&lt;/div&gt;&lt;div&gt;&lt;span style=&quot;color: #bbbbbb;&quot;&gt;&amp;nbsp; &amp;nbsp; &amp;nbsp; &amp;nbsp; &lt;/span&gt;&lt;span style=&quot;color: #fede5d;&quot;&gt;if&lt;/span&gt;&lt;span style=&quot;color: #bbbbbb;&quot;&gt; (&lt;/span&gt;&lt;span style=&quot;color: #ff7edb;&quot;&gt;i&lt;/span&gt;&lt;span style=&quot;color: #bbbbbb;&quot;&gt; &lt;/span&gt;&lt;span style=&quot;color: #fede5d;&quot;&gt;&amp;lt;=&lt;/span&gt;&lt;span style=&quot;color: #bbbbbb;&quot;&gt; &lt;/span&gt;&lt;span style=&quot;color: #ff7edb;&quot;&gt;direction&lt;/span&gt;&lt;span style=&quot;color: #bbbbbb;&quot;&gt;)&lt;/span&gt;&lt;/div&gt;&lt;div&gt;&lt;span style=&quot;color: #bbbbbb;&quot;&gt;&amp;nbsp; &amp;nbsp; &amp;nbsp; &amp;nbsp; &amp;nbsp; &amp;nbsp; &lt;/span&gt;&lt;span style=&quot;color: #ff7edb;font-style: italic;&quot;&gt;stack&lt;/span&gt;&lt;span style=&quot;color: #bbbbbb;&quot;&gt;-&amp;gt;&lt;/span&gt;&lt;span style=&quot;color: #ff7edb;&quot;&gt;move&lt;/span&gt;&lt;span style=&quot;color: #bbbbbb;&quot;&gt; &lt;/span&gt;&lt;span style=&quot;color: #ffffff;&quot;&gt;=&lt;/span&gt;&lt;span style=&quot;color: #bbbbbb;&quot;&gt; &lt;/span&gt;&lt;span style=&quot;color: #ff7edb;&quot;&gt;up&lt;/span&gt;&lt;span style=&quot;color: #bbbbbb;&quot;&gt;;&lt;/span&gt;&lt;/div&gt;&lt;div&gt;&lt;span style=&quot;color: #bbbbbb;&quot;&gt;&amp;nbsp; &amp;nbsp; &amp;nbsp; &amp;nbsp; &lt;/span&gt;&lt;span style=&quot;color: #fede5d;&quot;&gt;else&lt;/span&gt;&lt;/div&gt;&lt;div&gt;&lt;span style=&quot;color: #bbbbbb;&quot;&gt;&amp;nbsp; &amp;nbsp; &amp;nbsp; &amp;nbsp; &amp;nbsp; &amp;nbsp; &lt;/span&gt;&lt;span style=&quot;color: #ff7edb;font-style: italic;&quot;&gt;stack&lt;/span&gt;&lt;span style=&quot;color: #bbbbbb;&quot;&gt;-&amp;gt;&lt;/span&gt;&lt;span style=&quot;color: #ff7edb;&quot;&gt;move&lt;/span&gt;&lt;span style=&quot;color: #bbbbbb;&quot;&gt; &lt;/span&gt;&lt;span style=&quot;color: #ffffff;&quot;&gt;=&lt;/span&gt;&lt;span style=&quot;color: #bbbbbb;&quot;&gt; &lt;/span&gt;&lt;span style=&quot;color: #ff7edb;&quot;&gt;down&lt;/span&gt;&lt;span style=&quot;color: #bbbbbb;&quot;&gt;;&lt;/span&gt;&lt;/div&gt;&lt;div&gt;&lt;span style=&quot;color: #bbbbbb;&quot;&gt;&amp;nbsp; &amp;nbsp; &amp;nbsp; &amp;nbsp; &lt;/span&gt;&lt;span style=&quot;color: #ff7edb;font-style: italic;&quot;&gt;stack&lt;/span&gt;&lt;span style=&quot;color: #bbbbbb;&quot;&gt; &lt;/span&gt;&lt;span style=&quot;color: #ffffff;&quot;&gt;=&lt;/span&gt;&lt;span style=&quot;color: #bbbbbb;&quot;&gt; &lt;/span&gt;&lt;span style=&quot;color: #ff7edb;font-style: italic;&quot;&gt;stack&lt;/span&gt;&lt;span style=&quot;color: #bbbbbb;&quot;&gt;-&amp;gt;&lt;/span&gt;&lt;span style=&quot;color: #ff7edb;&quot;&gt;next&lt;/span&gt;&lt;span style=&quot;color: #bbbbbb;&quot;&gt;;&lt;/span&gt;&lt;/div&gt;&lt;div&gt;&lt;span style=&quot;color: #bbbbbb;&quot;&gt;&amp;nbsp; &amp;nbsp; &amp;nbsp; &amp;nbsp; &lt;/span&gt;&lt;span style=&quot;color: #fede5d;&quot;&gt;++&lt;/span&gt;&lt;span style=&quot;color: #ff7edb;&quot;&gt;i&lt;/span&gt;&lt;span style=&quot;color: #bbbbbb;&quot;&gt;;&lt;/span&gt;&lt;/div&gt;&lt;div&gt;&lt;span style=&quot;color: #bbbbbb;&quot;&gt;&amp;nbsp; &amp;nbsp; }&lt;/span&gt;&lt;/div&gt;&lt;div&gt;&lt;span style=&quot;color: #bbbbbb;&quot;&gt;}&lt;/span&gt;&lt;/div&gt;&lt;/div&gt;&#xa;&#xa;" style="text;html=1;strokeColor=none;fillColor=none;align=left;verticalAlign=top;spacingLeft=4;spacingRight=4;whiteSpace=wrap;overflow=hidden;rotatable=0;points=[[0,0.5],[1,0.5]];portConstraint=eastwest;" parent="SYRdz3PHqMFeTXsY7jjO-12" vertex="1">
          <mxGeometry y="26" width="380" height="404" as="geometry" />
        </mxCell>
        <mxCell id="SYRdz3PHqMFeTXsY7jjO-16" value="" style="line;html=1;strokeWidth=1;fillColor=none;align=left;verticalAlign=middle;spacingTop=-1;spacingLeft=3;spacingRight=3;rotatable=0;labelPosition=right;points=[];portConstraint=eastwest;" parent="SYRdz3PHqMFeTXsY7jjO-12" vertex="1">
          <mxGeometry y="430" width="380" height="8" as="geometry" />
        </mxCell>
        <mxCell id="SYRdz3PHqMFeTXsY7jjO-17" value="Function to update the &quot;index&quot; and &quot;move&quot; elements of each node.&lt;div&gt;&lt;br/&gt;&lt;/div&gt;" style="text;html=1;strokeColor=none;fillColor=none;align=left;verticalAlign=top;spacingLeft=4;spacingRight=4;whiteSpace=wrap;overflow=hidden;rotatable=0;points=[[0,0.5],[1,0.5]];portConstraint=eastwest;" parent="SYRdz3PHqMFeTXsY7jjO-12" vertex="1">
          <mxGeometry y="438" width="380" height="26" as="geometry" />
        </mxCell>
        <mxCell id="SYRdz3PHqMFeTXsY7jjO-23" value="" style="endArrow=classic;html=1;rounded=0;entryX=0;entryY=0.69;entryDx=0;entryDy=0;entryPerimeter=0;strokeWidth=2;fillColor=#dae8fc;strokeColor=#6c8ebf;edgeStyle=elbowEdgeStyle;" parent="1" target="SYRdz3PHqMFeTXsY7jjO-13" edge="1">
          <mxGeometry width="50" height="50" relative="1" as="geometry">
            <mxPoint x="870" y="680" as="sourcePoint" />
            <mxPoint x="1026" y="380" as="targetPoint" />
            <Array as="points">
              <mxPoint x="960" y="530" />
            </Array>
          </mxGeometry>
        </mxCell>
        <mxCell id="SYRdz3PHqMFeTXsY7jjO-24" value="Target" style="swimlane;html=1;fontStyle=1;align=center;verticalAlign=top;childLayout=stackLayout;horizontal=1;startSize=26;horizontalStack=0;resizeParent=1;resizeLast=0;collapsible=1;marginBottom=0;swimlaneFillColor=#ffffff;rounded=0;shadow=0;comic=0;labelBackgroundColor=none;strokeWidth=1;fillColor=none;fontFamily=Verdana;fontSize=12" parent="1" vertex="1">
          <mxGeometry x="1020" y="530" width="430" height="630" as="geometry" />
        </mxCell>
        <mxCell id="SYRdz3PHqMFeTXsY7jjO-25" value="&#xa;&lt;div style=&quot;color: rgb(187, 187, 187); background-color: rgb(38, 35, 53); font-family: Consolas, &amp;quot;Courier New&amp;quot;, monospace; font-weight: normal; font-size: 14px; line-height: 19px;&quot;&gt;&lt;div&gt;&lt;span style=&quot;color: #fede5d;&quot;&gt;void&lt;/span&gt;&lt;span style=&quot;color: #bbbbbb;&quot;&gt; &amp;nbsp; &amp;nbsp;&lt;/span&gt;&lt;span style=&quot;color: #36f9f6;&quot;&gt;set_target_a&lt;/span&gt;&lt;span style=&quot;color: #bbbbbb;&quot;&gt;(&lt;/span&gt;&lt;span style=&quot;color: #fe4450;&quot;&gt;t_stack&lt;/span&gt;&lt;span style=&quot;color: #bbbbbb;&quot;&gt; &lt;/span&gt;&lt;span style=&quot;color: #fede5d;&quot;&gt;*&lt;/span&gt;&lt;span style=&quot;color: #ff7edb;font-style: italic;&quot;&gt;a&lt;/span&gt;&lt;span style=&quot;color: #bbbbbb;&quot;&gt;, &lt;/span&gt;&lt;span style=&quot;color: #fe4450;&quot;&gt;t_stack&lt;/span&gt;&lt;span style=&quot;color: #bbbbbb;&quot;&gt; &lt;/span&gt;&lt;span style=&quot;color: #fede5d;&quot;&gt;*&lt;/span&gt;&lt;span style=&quot;color: #ff7edb;font-style: italic;&quot;&gt;b&lt;/span&gt;&lt;span style=&quot;color: #bbbbbb;&quot;&gt;)&lt;/span&gt;&lt;/div&gt;&lt;div&gt;&lt;span style=&quot;color: #bbbbbb;&quot;&gt;{&lt;/span&gt;&lt;/div&gt;&lt;div&gt;&lt;span style=&quot;color: #bbbbbb;&quot;&gt;&amp;nbsp; &amp;nbsp; &lt;/span&gt;&lt;span style=&quot;color: #fe4450;&quot;&gt;t_stack&lt;/span&gt;&lt;span style=&quot;color: #bbbbbb;&quot;&gt; &lt;/span&gt;&lt;span style=&quot;color: #fede5d;&quot;&gt;*&lt;/span&gt;&lt;span style=&quot;color: #ff7edb;&quot;&gt;target&lt;/span&gt;&lt;span style=&quot;color: #bbbbbb;&quot;&gt;;&lt;/span&gt;&lt;/div&gt;&lt;div&gt;&lt;span style=&quot;color: #bbbbbb;&quot;&gt;&amp;nbsp; &amp;nbsp; &lt;/span&gt;&lt;span style=&quot;color: #fe4450;&quot;&gt;t_stack&lt;/span&gt;&lt;span style=&quot;color: #bbbbbb;&quot;&gt; &lt;/span&gt;&lt;span style=&quot;color: #fede5d;&quot;&gt;*&lt;/span&gt;&lt;span style=&quot;color: #ff7edb;&quot;&gt;current_b&lt;/span&gt;&lt;span style=&quot;color: #bbbbbb;&quot;&gt;;&lt;/span&gt;&lt;/div&gt;&lt;div&gt;&lt;span style=&quot;color: #bbbbbb;&quot;&gt;&amp;nbsp; &amp;nbsp; &lt;/span&gt;&lt;span style=&quot;color: #fede5d;&quot;&gt;long&lt;/span&gt;&lt;span style=&quot;color: #bbbbbb;&quot;&gt; &amp;nbsp; &amp;nbsp;&lt;/span&gt;&lt;span style=&quot;color: #ff7edb;&quot;&gt;closest_smaller&lt;/span&gt;&lt;span style=&quot;color: #bbbbbb;&quot;&gt;;&lt;/span&gt;&lt;/div&gt;&lt;br&gt;&lt;div&gt;&lt;span style=&quot;color: #bbbbbb;&quot;&gt;&amp;nbsp; &amp;nbsp; &lt;/span&gt;&lt;span style=&quot;color: #fede5d;&quot;&gt;while&lt;/span&gt;&lt;span style=&quot;color: #bbbbbb;&quot;&gt; (&lt;/span&gt;&lt;span style=&quot;color: #ff7edb;font-style: italic;&quot;&gt;a&lt;/span&gt;&lt;span style=&quot;color: #bbbbbb;&quot;&gt;)&lt;/span&gt;&lt;/div&gt;&lt;div&gt;&lt;span style=&quot;color: #bbbbbb;&quot;&gt;&amp;nbsp; &amp;nbsp; {&lt;/span&gt;&lt;/div&gt;&lt;div&gt;&lt;span style=&quot;color: #bbbbbb;&quot;&gt;&amp;nbsp; &amp;nbsp; &amp;nbsp; &amp;nbsp; &lt;/span&gt;&lt;span style=&quot;color: #ff7edb;&quot;&gt;closest_smaller&lt;/span&gt;&lt;span style=&quot;color: #bbbbbb;&quot;&gt; &lt;/span&gt;&lt;span style=&quot;color: #ffffff;&quot;&gt;=&lt;/span&gt;&lt;span style=&quot;color: #bbbbbb;&quot;&gt; &lt;/span&gt;&lt;span style=&quot;color: #36f9f6;&quot;&gt;LONG_MIN&lt;/span&gt;&lt;span style=&quot;color: #bbbbbb;&quot;&gt;;&lt;/span&gt;&lt;/div&gt;&lt;div&gt;&lt;span style=&quot;color: #bbbbbb;&quot;&gt;&amp;nbsp; &amp;nbsp; &amp;nbsp; &amp;nbsp; &lt;/span&gt;&lt;span style=&quot;color: #ff7edb;&quot;&gt;current_b&lt;/span&gt;&lt;span style=&quot;color: #bbbbbb;&quot;&gt; &lt;/span&gt;&lt;span style=&quot;color: #ffffff;&quot;&gt;=&lt;/span&gt;&lt;span style=&quot;color: #bbbbbb;&quot;&gt; &lt;/span&gt;&lt;span style=&quot;color: #ff7edb;font-style: italic;&quot;&gt;b&lt;/span&gt;&lt;span style=&quot;color: #bbbbbb;&quot;&gt;;&lt;/span&gt;&lt;/div&gt;&lt;div&gt;&lt;span style=&quot;color: #bbbbbb;&quot;&gt;&amp;nbsp; &amp;nbsp; &amp;nbsp; &amp;nbsp; &lt;/span&gt;&lt;span style=&quot;color: #fede5d;&quot;&gt;while&lt;/span&gt;&lt;span style=&quot;color: #bbbbbb;&quot;&gt; (&lt;/span&gt;&lt;span style=&quot;color: #ff7edb;&quot;&gt;current_b&lt;/span&gt;&lt;span style=&quot;color: #bbbbbb;&quot;&gt;)&lt;/span&gt;&lt;/div&gt;&lt;div&gt;&lt;span style=&quot;color: #bbbbbb;&quot;&gt;&amp;nbsp; &amp;nbsp; &amp;nbsp; &amp;nbsp; {&lt;/span&gt;&lt;/div&gt;&lt;div&gt;&lt;span style=&quot;color: #bbbbbb;&quot;&gt;&amp;nbsp; &amp;nbsp; &amp;nbsp; &amp;nbsp; &amp;nbsp; &amp;nbsp; &lt;/span&gt;&lt;span style=&quot;color: #fede5d;&quot;&gt;if&lt;/span&gt;&lt;span style=&quot;color: #bbbbbb;&quot;&gt; (&lt;/span&gt;&lt;span style=&quot;color: #ff7edb;&quot;&gt;current_b&lt;/span&gt;&lt;span style=&quot;color: #bbbbbb;&quot;&gt;-&amp;gt;&lt;/span&gt;&lt;span style=&quot;color: #ff7edb;&quot;&gt;value&lt;/span&gt;&lt;span style=&quot;color: #bbbbbb;&quot;&gt; &lt;/span&gt;&lt;span style=&quot;color: #fede5d;&quot;&gt;&amp;lt;&lt;/span&gt;&lt;span style=&quot;color: #bbbbbb;&quot;&gt; &lt;/span&gt;&lt;span style=&quot;color: #ff7edb;font-style: italic;&quot;&gt;a&lt;/span&gt;&lt;span style=&quot;color: #bbbbbb;&quot;&gt;-&amp;gt;&lt;/span&gt;&lt;span style=&quot;color: #ff7edb;&quot;&gt;value&lt;/span&gt;&lt;/div&gt;&lt;div&gt;&lt;span style=&quot;color: #bbbbbb;&quot;&gt;&amp;nbsp; &amp;nbsp; &amp;nbsp; &amp;nbsp; &amp;nbsp; &amp;nbsp; &amp;nbsp; &amp;nbsp; &lt;/span&gt;&lt;span style=&quot;color: #fede5d;&quot;&gt;&amp;amp;&amp;amp;&lt;/span&gt;&lt;span style=&quot;color: #bbbbbb;&quot;&gt; &lt;/span&gt;&lt;span style=&quot;color: #ff7edb;&quot;&gt;current_b&lt;/span&gt;&lt;span style=&quot;color: #bbbbbb;&quot;&gt;-&amp;gt;&lt;/span&gt;&lt;span style=&quot;color: #ff7edb;&quot;&gt;value&lt;/span&gt;&lt;span style=&quot;color: #bbbbbb;&quot;&gt; &lt;/span&gt;&lt;span style=&quot;color: #fede5d;&quot;&gt;&amp;gt;&lt;/span&gt;&lt;span style=&quot;color: #bbbbbb;&quot;&gt; &lt;/span&gt;&lt;span style=&quot;color: #ff7edb;&quot;&gt;closest_smaller&lt;/span&gt;&lt;span style=&quot;color: #bbbbbb;&quot;&gt;)&lt;/span&gt;&lt;/div&gt;&lt;div&gt;&lt;span style=&quot;color: #bbbbbb;&quot;&gt;&amp;nbsp; &amp;nbsp; &amp;nbsp; &amp;nbsp; &amp;nbsp; &amp;nbsp; {&lt;/span&gt;&lt;/div&gt;&lt;div&gt;&lt;span style=&quot;color: #bbbbbb;&quot;&gt;&amp;nbsp; &amp;nbsp; &amp;nbsp; &amp;nbsp; &amp;nbsp; &amp;nbsp; &amp;nbsp; &amp;nbsp; &lt;/span&gt;&lt;span style=&quot;color: #ff7edb;&quot;&gt;closest_smaller&lt;/span&gt;&lt;span style=&quot;color: #bbbbbb;&quot;&gt; &lt;/span&gt;&lt;span style=&quot;color: #ffffff;&quot;&gt;=&lt;/span&gt;&lt;span style=&quot;color: #bbbbbb;&quot;&gt; &lt;/span&gt;&lt;span style=&quot;color: #ff7edb;&quot;&gt;current_b&lt;/span&gt;&lt;span style=&quot;color: #bbbbbb;&quot;&gt;-&amp;gt;&lt;/span&gt;&lt;span style=&quot;color: #ff7edb;&quot;&gt;value&lt;/span&gt;&lt;span style=&quot;color: #bbbbbb;&quot;&gt;;&lt;/span&gt;&lt;/div&gt;&lt;div&gt;&lt;span style=&quot;color: #bbbbbb;&quot;&gt;&amp;nbsp; &amp;nbsp; &amp;nbsp; &amp;nbsp; &amp;nbsp; &amp;nbsp; &amp;nbsp; &amp;nbsp; &lt;/span&gt;&lt;span style=&quot;color: #ff7edb;&quot;&gt;target&lt;/span&gt;&lt;span style=&quot;color: #bbbbbb;&quot;&gt; &lt;/span&gt;&lt;span style=&quot;color: #ffffff;&quot;&gt;=&lt;/span&gt;&lt;span style=&quot;color: #bbbbbb;&quot;&gt; &lt;/span&gt;&lt;span style=&quot;color: #ff7edb;&quot;&gt;current_b&lt;/span&gt;&lt;span style=&quot;color: #bbbbbb;&quot;&gt;;&lt;/span&gt;&lt;/div&gt;&lt;div&gt;&lt;span style=&quot;color: #bbbbbb;&quot;&gt;&amp;nbsp; &amp;nbsp; &amp;nbsp; &amp;nbsp; &amp;nbsp; &amp;nbsp; }&lt;/span&gt;&lt;/div&gt;&lt;div&gt;&lt;span style=&quot;color: #bbbbbb;&quot;&gt;&amp;nbsp; &amp;nbsp; &amp;nbsp; &amp;nbsp; &amp;nbsp; &amp;nbsp; &lt;/span&gt;&lt;span style=&quot;color: #ff7edb;&quot;&gt;current_b&lt;/span&gt;&lt;span style=&quot;color: #bbbbbb;&quot;&gt; &lt;/span&gt;&lt;span style=&quot;color: #ffffff;&quot;&gt;=&lt;/span&gt;&lt;span style=&quot;color: #bbbbbb;&quot;&gt; &lt;/span&gt;&lt;span style=&quot;color: #ff7edb;&quot;&gt;current_b&lt;/span&gt;&lt;span style=&quot;color: #bbbbbb;&quot;&gt;-&amp;gt;&lt;/span&gt;&lt;span style=&quot;color: #ff7edb;&quot;&gt;next&lt;/span&gt;&lt;span style=&quot;color: #bbbbbb;&quot;&gt;;&lt;/span&gt;&lt;/div&gt;&lt;div&gt;&lt;span style=&quot;color: #bbbbbb;&quot;&gt;&amp;nbsp; &amp;nbsp; &amp;nbsp; &amp;nbsp; }&lt;/span&gt;&lt;/div&gt;&lt;div&gt;&lt;span style=&quot;color: #bbbbbb;&quot;&gt;&amp;nbsp; &amp;nbsp; &amp;nbsp; &amp;nbsp; &lt;/span&gt;&lt;span style=&quot;color: #fede5d;&quot;&gt;if&lt;/span&gt;&lt;span style=&quot;color: #bbbbbb;&quot;&gt; (&lt;/span&gt;&lt;span style=&quot;color: #ff7edb;&quot;&gt;closest_smaller&lt;/span&gt;&lt;span style=&quot;color: #bbbbbb;&quot;&gt; &lt;/span&gt;&lt;span style=&quot;color: #fede5d;&quot;&gt;==&lt;/span&gt;&lt;span style=&quot;color: #bbbbbb;&quot;&gt; &lt;/span&gt;&lt;span style=&quot;color: #36f9f6;&quot;&gt;LONG_MIN&lt;/span&gt;&lt;span style=&quot;color: #bbbbbb;&quot;&gt;)&lt;/span&gt;&lt;/div&gt;&lt;div&gt;&lt;span style=&quot;color: #bbbbbb;&quot;&gt;&amp;nbsp; &amp;nbsp; &amp;nbsp; &amp;nbsp; &amp;nbsp; &amp;nbsp; &lt;/span&gt;&lt;span style=&quot;color: #ff7edb;font-style: italic;&quot;&gt;a&lt;/span&gt;&lt;span style=&quot;color: #bbbbbb;&quot;&gt;-&amp;gt;&lt;/span&gt;&lt;span style=&quot;color: #ff7edb;&quot;&gt;target&lt;/span&gt;&lt;span style=&quot;color: #bbbbbb;&quot;&gt; &lt;/span&gt;&lt;span style=&quot;color: #ffffff;&quot;&gt;=&lt;/span&gt;&lt;span style=&quot;color: #bbbbbb;&quot;&gt; &lt;/span&gt;&lt;span style=&quot;color: #36f9f6;&quot;&gt;find_max_value&lt;/span&gt;&lt;span style=&quot;color: #bbbbbb;&quot;&gt;(&lt;/span&gt;&lt;span style=&quot;color: #ff7edb;font-style: italic;&quot;&gt;b&lt;/span&gt;&lt;span style=&quot;color: #bbbbbb;&quot;&gt;);&lt;/span&gt;&lt;/div&gt;&lt;div&gt;&lt;span style=&quot;color: #bbbbbb;&quot;&gt;&amp;nbsp; &amp;nbsp; &amp;nbsp; &amp;nbsp; &lt;/span&gt;&lt;span style=&quot;color: #fede5d;&quot;&gt;else&lt;/span&gt;&lt;/div&gt;&lt;div&gt;&lt;span style=&quot;color: #bbbbbb;&quot;&gt;&amp;nbsp; &amp;nbsp; &amp;nbsp; &amp;nbsp; &amp;nbsp; &amp;nbsp; &lt;/span&gt;&lt;span style=&quot;color: #ff7edb;font-style: italic;&quot;&gt;a&lt;/span&gt;&lt;span style=&quot;color: #bbbbbb;&quot;&gt;-&amp;gt;&lt;/span&gt;&lt;span style=&quot;color: #ff7edb;&quot;&gt;target&lt;/span&gt;&lt;span style=&quot;color: #bbbbbb;&quot;&gt; &lt;/span&gt;&lt;span style=&quot;color: #ffffff;&quot;&gt;=&lt;/span&gt;&lt;span style=&quot;color: #bbbbbb;&quot;&gt; &lt;/span&gt;&lt;span style=&quot;color: #ff7edb;&quot;&gt;target&lt;/span&gt;&lt;span style=&quot;color: #bbbbbb;&quot;&gt;;&lt;/span&gt;&lt;/div&gt;&lt;div&gt;&lt;span style=&quot;color: #bbbbbb;&quot;&gt;&amp;nbsp; &amp;nbsp; &amp;nbsp; &amp;nbsp; &lt;/span&gt;&lt;span style=&quot;color: #ff7edb;font-style: italic;&quot;&gt;a&lt;/span&gt;&lt;span style=&quot;color: #bbbbbb;&quot;&gt; &lt;/span&gt;&lt;span style=&quot;color: #ffffff;&quot;&gt;=&lt;/span&gt;&lt;span style=&quot;color: #bbbbbb;&quot;&gt; &lt;/span&gt;&lt;span style=&quot;color: #ff7edb;font-style: italic;&quot;&gt;a&lt;/span&gt;&lt;span style=&quot;color: #bbbbbb;&quot;&gt;-&amp;gt;&lt;/span&gt;&lt;span style=&quot;color: #ff7edb;&quot;&gt;next&lt;/span&gt;&lt;span style=&quot;color: #bbbbbb;&quot;&gt;;&lt;/span&gt;&lt;/div&gt;&lt;div&gt;&lt;span style=&quot;color: #bbbbbb;&quot;&gt;&amp;nbsp; &amp;nbsp; }&lt;/span&gt;&lt;/div&gt;&lt;div&gt;&lt;span style=&quot;color: #bbbbbb;&quot;&gt;}&lt;/span&gt;&lt;/div&gt;&lt;/div&gt;&#xa;&#xa;" style="text;html=1;strokeColor=none;fillColor=none;align=left;verticalAlign=top;spacingLeft=4;spacingRight=4;whiteSpace=wrap;overflow=hidden;rotatable=0;points=[[0,0.5],[1,0.5]];portConstraint=eastwest;" parent="SYRdz3PHqMFeTXsY7jjO-24" vertex="1">
          <mxGeometry y="26" width="430" height="534" as="geometry" />
        </mxCell>
        <mxCell id="SYRdz3PHqMFeTXsY7jjO-28" value="" style="line;html=1;strokeWidth=1;fillColor=none;align=left;verticalAlign=middle;spacingTop=-1;spacingLeft=3;spacingRight=3;rotatable=0;labelPosition=right;points=[];portConstraint=eastwest;" parent="SYRdz3PHqMFeTXsY7jjO-24" vertex="1">
          <mxGeometry y="560" width="430" height="8" as="geometry" />
        </mxCell>
        <mxCell id="SYRdz3PHqMFeTXsY7jjO-29" value="Function to find in &quot;Stack B&quot; the closest smaller values to the nodes in &quot;Stack A&quot;, and set them as the &quot;target&quot; element. Or if none exists, set the maximum value in &quot;Stack B&quot; as the target." style="text;html=1;strokeColor=none;fillColor=none;align=left;verticalAlign=top;spacingLeft=4;spacingRight=4;whiteSpace=wrap;overflow=hidden;rotatable=0;points=[[0,0.5],[1,0.5]];portConstraint=eastwest;" parent="SYRdz3PHqMFeTXsY7jjO-24" vertex="1">
          <mxGeometry y="568" width="430" height="52" as="geometry" />
        </mxCell>
        <mxCell id="SYRdz3PHqMFeTXsY7jjO-30" value="&quot;Stack B&quot;" style="swimlane;html=1;fontStyle=1;align=center;verticalAlign=top;childLayout=stackLayout;horizontal=1;startSize=26;horizontalStack=0;resizeParent=1;resizeLast=0;collapsible=1;marginBottom=0;swimlaneFillColor=#ffffff;rounded=0;shadow=0;comic=0;labelBackgroundColor=none;strokeWidth=1;fillColor=none;fontFamily=Verdana;fontSize=12" parent="1" vertex="1">
          <mxGeometry x="460" y="670" width="110" height="190" as="geometry">
            <mxRectangle x="10" y="20" width="110" height="30" as="alternateBounds" />
          </mxGeometry>
        </mxCell>
        <mxCell id="SYRdz3PHqMFeTXsY7jjO-32" value="stack node 1" style="text;html=1;strokeColor=none;fillColor=none;align=left;verticalAlign=top;spacingLeft=4;spacingRight=4;whiteSpace=wrap;overflow=hidden;rotatable=0;points=[[0,0.5],[1,0.5]];portConstraint=eastwest;" parent="SYRdz3PHqMFeTXsY7jjO-30" vertex="1">
          <mxGeometry y="26" width="110" height="26" as="geometry" />
        </mxCell>
        <mxCell id="SYRdz3PHqMFeTXsY7jjO-33" value="stack node 2" style="text;html=1;strokeColor=none;fillColor=none;align=left;verticalAlign=top;spacingLeft=4;spacingRight=4;whiteSpace=wrap;overflow=hidden;rotatable=0;points=[[0,0.5],[1,0.5]];portConstraint=eastwest;" parent="SYRdz3PHqMFeTXsY7jjO-30" vertex="1">
          <mxGeometry y="52" width="110" height="26" as="geometry" />
        </mxCell>
        <mxCell id="SYRdz3PHqMFeTXsY7jjO-34" value="stack node 3" style="text;html=1;strokeColor=none;fillColor=none;align=left;verticalAlign=top;spacingLeft=4;spacingRight=4;whiteSpace=wrap;overflow=hidden;rotatable=0;points=[[0,0.5],[1,0.5]];portConstraint=eastwest;" parent="SYRdz3PHqMFeTXsY7jjO-30" vertex="1">
          <mxGeometry y="78" width="110" height="26" as="geometry" />
        </mxCell>
        <mxCell id="SYRdz3PHqMFeTXsY7jjO-35" value="stack node 4" style="text;html=1;strokeColor=none;fillColor=none;align=left;verticalAlign=top;spacingLeft=4;spacingRight=4;whiteSpace=wrap;overflow=hidden;rotatable=0;points=[[0,0.5],[1,0.5]];portConstraint=eastwest;" parent="SYRdz3PHqMFeTXsY7jjO-30" vertex="1">
          <mxGeometry y="104" width="110" height="26" as="geometry" />
        </mxCell>
        <mxCell id="SYRdz3PHqMFeTXsY7jjO-36" value="etc." style="text;html=1;strokeColor=none;fillColor=none;align=left;verticalAlign=top;spacingLeft=4;spacingRight=4;whiteSpace=wrap;overflow=hidden;rotatable=0;points=[[0,0.5],[1,0.5]];portConstraint=eastwest;" parent="SYRdz3PHqMFeTXsY7jjO-30" vertex="1">
          <mxGeometry y="130" width="110" height="26" as="geometry" />
        </mxCell>
        <mxCell id="SYRdz3PHqMFeTXsY7jjO-38" value="" style="endArrow=classic;html=1;rounded=0;entryX=-0.001;entryY=0.697;entryDx=0;entryDy=0;entryPerimeter=0;strokeWidth=2;fillColor=#e3c800;strokeColor=#B09500;edgeStyle=elbowEdgeStyle;" parent="1" target="SYRdz3PHqMFeTXsY7jjO-25" edge="1">
          <mxGeometry width="50" height="50" relative="1" as="geometry">
            <mxPoint x="890" y="660" as="sourcePoint" />
            <mxPoint x="1020.0000000000001" y="839.8500000000001" as="targetPoint" />
            <Array as="points">
              <mxPoint x="970" y="750" />
            </Array>
          </mxGeometry>
        </mxCell>
        <mxCell id="bX30h_IBb_azjsWRA-Sb-1" value="t_direction move;" style="swimlane;html=1;fontStyle=1;align=center;verticalAlign=top;childLayout=stackLayout;horizontal=1;startSize=30;horizontalStack=0;resizeParent=1;resizeLast=0;collapsible=1;marginBottom=0;swimlaneFillColor=#ffffff;rounded=0;shadow=0;comic=0;labelBackgroundColor=none;strokeWidth=1;fillColor=none;fontFamily=Verdana;fontSize=12" vertex="1" parent="1">
          <mxGeometry x="660" y="800" width="200" height="154" as="geometry" />
        </mxCell>
        <mxCell id="bX30h_IBb_azjsWRA-Sb-2" value="&#xa;&lt;div style=&quot;color: rgb(187, 187, 187); background-color: rgb(38, 35, 53); font-family: Consolas, &amp;quot;Courier New&amp;quot;, monospace; font-weight: normal; font-size: 14px; line-height: 19px;&quot;&gt;&lt;div&gt;&lt;span style=&quot;color: #fede5d;&quot;&gt;typedef&lt;/span&gt;&lt;span style=&quot;color: #bbbbbb;&quot;&gt; &lt;/span&gt;&lt;span style=&quot;color: #fede5d;&quot;&gt;enum&lt;/span&gt;&lt;span style=&quot;color: #bbbbbb;&quot;&gt; &lt;/span&gt;&lt;span style=&quot;color: #fe4450;&quot;&gt;e_direction&lt;/span&gt;&lt;/div&gt;&lt;div&gt;&lt;span style=&quot;color: #bbbbbb;&quot;&gt;{&lt;/span&gt;&lt;/div&gt;&lt;div&gt;&lt;span style=&quot;color: #bbbbbb;&quot;&gt;&amp;nbsp; &amp;nbsp; &lt;/span&gt;&lt;span style=&quot;color: #ff7edb;&quot;&gt;up&lt;/span&gt;&lt;span style=&quot;color: #bbbbbb;&quot;&gt;,&lt;/span&gt;&lt;/div&gt;&lt;div&gt;&lt;span style=&quot;color: #bbbbbb;&quot;&gt;&amp;nbsp; &amp;nbsp; &lt;/span&gt;&lt;span style=&quot;color: #ff7edb;&quot;&gt;down&lt;/span&gt;&lt;/div&gt;&lt;div&gt;&lt;span style=&quot;color: #bbbbbb;&quot;&gt;} &amp;nbsp; &lt;/span&gt;&lt;span style=&quot;color: #fe4450;&quot;&gt;t_direction&lt;/span&gt;&lt;span style=&quot;color: #bbbbbb;&quot;&gt;;&lt;/span&gt;&lt;/div&gt;&lt;/div&gt;&#xa;&#xa;" style="text;html=1;strokeColor=none;fillColor=none;align=left;verticalAlign=top;spacingLeft=4;spacingRight=4;whiteSpace=wrap;overflow=hidden;rotatable=0;points=[[0,0.5],[1,0.5]];portConstraint=eastwest;" vertex="1" parent="bX30h_IBb_azjsWRA-Sb-1">
          <mxGeometry y="30" width="200" height="124" as="geometry" />
        </mxCell>
        <mxCell id="bX30h_IBb_azjsWRA-Sb-7" style="edgeStyle=orthogonalEdgeStyle;rounded=0;orthogonalLoop=1;jettySize=auto;html=1;entryX=0.002;entryY=0.245;entryDx=0;entryDy=0;entryPerimeter=0;exitX=-0.001;exitY=0.796;exitDx=0;exitDy=0;exitPerimeter=0;" edge="1" parent="1" source="78961159f06e98e8-23" target="bX30h_IBb_azjsWRA-Sb-2">
          <mxGeometry relative="1" as="geometry" />
        </mxCell>
        <mxCell id="bX30h_IBb_azjsWRA-Sb-10" style="edgeStyle=orthogonalEdgeStyle;rounded=0;orthogonalLoop=1;jettySize=auto;html=1;entryX=1;entryY=0.5;entryDx=0;entryDy=0;" edge="1" parent="1" target="bX30h_IBb_azjsWRA-Sb-9">
          <mxGeometry relative="1" as="geometry">
            <mxPoint x="650" y="1235" as="sourcePoint" />
          </mxGeometry>
        </mxCell>
        <mxCell id="bX30h_IBb_azjsWRA-Sb-12" style="edgeStyle=orthogonalEdgeStyle;rounded=0;orthogonalLoop=1;jettySize=auto;html=1;entryX=1;entryY=0.25;entryDx=0;entryDy=0;exitX=-0.006;exitY=0.582;exitDx=0;exitDy=0;exitPerimeter=0;" edge="1" parent="1" source="bX30h_IBb_azjsWRA-Sb-8" target="bX30h_IBb_azjsWRA-Sb-11">
          <mxGeometry relative="1" as="geometry" />
        </mxCell>
        <mxCell id="bX30h_IBb_azjsWRA-Sb-8" value="$ ./push_swap 90 32 8 15 71 66 5&#xa;pb&#xa;pb&#xa;Stack A: index: 0, value: 8, no. of operations: 1&#xa;Stack A: index: 1, value: 15, no. of operations: 2&#xa;Stack A: index: 2, value: 71, no. of operations: 2&#xa;Stack A: index: 3, value: 66, no. of operations: 2&#xa;Stack A: index: 4, value: 5, no. of operations: 2&#xa;rb&#xa;pb&#xa;Stack A: index: 0, value: 15, no. of operations: 0&#xa;Stack A: index: 1, value: 71, no. of operations: 2&#xa;Stack A: index: 2, value: 66, no. of operations: 3&#xa;Stack A: index: 3, value: 5, no. of operations: 2&#xa;pb&#xa;ra&#xa;sa&#xa;Stack B: index: 0, value: 15&#xa;Stack B: index: 1, value: 8&#xa;Stack B: index: 2, value: 90&#xa;Stack B: index: 3, value: 32&#xa;ra&#xa;pa&#xa;Stack B: index: 0, value: 8&#xa;Stack B: index: 1, value: 90&#xa;Stack B: index: 2, value: 32&#xa;pa&#xa;Stack B: index: 0, value: 90&#xa;Stack B: index: 1, value: 32&#xa;rra&#xa;pa&#xa;Stack B: index: 0, value: 32&#xa;rra&#xa;rra&#xa;pa&#xa;rra&#xa;rra&#xa;rra" style="text;whiteSpace=wrap;html=1;" vertex="1" parent="1">
          <mxGeometry x="660" y="990" width="290" height="570" as="geometry" />
        </mxCell>
        <mxCell id="bX30h_IBb_azjsWRA-Sb-9" value="A is sorted at this point" style="text;strokeColor=default;align=center;fillColor=none;html=1;verticalAlign=middle;whiteSpace=wrap;rounded=0;" vertex="1" parent="1">
          <mxGeometry x="480" y="1220" width="100" height="30" as="geometry" />
        </mxCell>
        <mxCell id="bX30h_IBb_azjsWRA-Sb-11" value="Stack A:&lt;br&gt;15&lt;br&gt;66&lt;br&gt;71&lt;br&gt;5" style="text;strokeColor=default;align=center;fillColor=none;html=1;verticalAlign=middle;whiteSpace=wrap;rounded=0;perimeterSpacing=0;shadow=0;" vertex="1" parent="1">
          <mxGeometry x="500" y="1275" width="60" height="80" as="geometry" />
        </mxCell>
        <mxCell id="bX30h_IBb_azjsWRA-Sb-13" value="Stack A:&lt;br&gt;90&lt;br&gt;5&lt;br&gt;8&lt;br&gt;15&lt;br&gt;66&lt;br&gt;71" style="text;strokeColor=default;align=center;fillColor=none;html=1;verticalAlign=middle;whiteSpace=wrap;rounded=0;perimeterSpacing=0;shadow=0;" vertex="1" parent="1">
          <mxGeometry x="500" y="1370" width="60" height="120" as="geometry" />
        </mxCell>
        <mxCell id="bX30h_IBb_azjsWRA-Sb-14" style="edgeStyle=orthogonalEdgeStyle;rounded=0;orthogonalLoop=1;jettySize=auto;html=1;entryX=1.051;entryY=0.138;entryDx=0;entryDy=0;entryPerimeter=0;exitX=-0.006;exitY=0.785;exitDx=0;exitDy=0;exitPerimeter=0;" edge="1" parent="1" source="bX30h_IBb_azjsWRA-Sb-8" target="bX30h_IBb_azjsWRA-Sb-13">
          <mxGeometry relative="1" as="geometry">
            <mxPoint x="650" y="1440" as="sourcePoint" />
          </mxGeometry>
        </mxCell>
        <mxCell id="bX30h_IBb_azjsWRA-Sb-18" style="edgeStyle=orthogonalEdgeStyle;rounded=0;orthogonalLoop=1;jettySize=auto;html=1;entryX=0;entryY=0.25;entryDx=0;entryDy=0;exitX=1.038;exitY=0.637;exitDx=0;exitDy=0;exitPerimeter=0;" edge="1" parent="1" source="bX30h_IBb_azjsWRA-Sb-15" target="bX30h_IBb_azjsWRA-Sb-17">
          <mxGeometry relative="1" as="geometry" />
        </mxCell>
        <mxCell id="bX30h_IBb_azjsWRA-Sb-15" value="Stack A:&lt;br&gt;32&lt;br&gt;66&lt;br&gt;71&lt;br&gt;90&lt;br&gt;5&lt;br&gt;8&lt;br&gt;15" style="text;strokeColor=default;align=center;fillColor=none;html=1;verticalAlign=middle;whiteSpace=wrap;rounded=0;perimeterSpacing=0;shadow=0;" vertex="1" parent="1">
          <mxGeometry x="500" y="1510" width="60" height="140" as="geometry" />
        </mxCell>
        <mxCell id="bX30h_IBb_azjsWRA-Sb-16" style="edgeStyle=orthogonalEdgeStyle;rounded=0;orthogonalLoop=1;jettySize=auto;html=1;entryX=1;entryY=0.12;entryDx=0;entryDy=0;entryPerimeter=0;exitX=-0.006;exitY=0.883;exitDx=0;exitDy=0;exitPerimeter=0;" edge="1" parent="1" source="bX30h_IBb_azjsWRA-Sb-8" target="bX30h_IBb_azjsWRA-Sb-15">
          <mxGeometry relative="1" as="geometry">
            <mxPoint x="650" y="1490" as="sourcePoint" />
          </mxGeometry>
        </mxCell>
        <mxCell id="bX30h_IBb_azjsWRA-Sb-17" value="Sorted after 3 reverse rotates" style="text;strokeColor=default;align=center;fillColor=none;html=1;verticalAlign=middle;whiteSpace=wrap;rounded=0;" vertex="1" parent="1">
          <mxGeometry x="640" y="1620" width="100" height="30" as="geometry" />
        </mxCell>
      </root>
    </mxGraphModel>
  </diagram>
</mxfile>
